<?xml version="1.0" standalone="no"?>
<!DOCTYPE svg PUBLIC "-//W3C//DTD SVG 20010904//EN"
 "http://www.w3.org/TR/2001/REC-SVG-20010904/DTD/svg10.dtd">
<svg version="1.0" xmlns="http://www.w3.org/2000/svg"
 width="700.000000pt" height="700.000000pt" viewBox="0 0 700.000000 700.000000"
 preserveAspectRatio="xMidYMid meet">
<metadata>
Created by potrace 1.14, written by Peter Selinger 2001-2017
</metadata>
<g transform="translate(0.000000,700.000000) scale(0.100000,-0.100000)"
fill="#000000" stroke="none">
<path d="M765 6994 c-107 -22 -140 -30 -205 -55 -190 -73 -351 -214 -453 -399
-38 -69 -83 -194 -95 -263 -4 -23 -7 -1277 -7 -2787 l0 -2745 22 -84 c83 -310
314 -542 630 -633 l78 -23 2765 0 2765 0 78 23 c247 71 432 217 550 432 38 71
83 195 95 263 4 23 7 1280 7 2792 l0 2750 -23 80 c-67 232 -221 430 -421 542
-58 33 -177 79 -256 100 -30 8 -5492 14 -5530 7z"/>
</g>
</svg>
